PathFileType	4	(X/Y/Z)	E:\MAC3D_DATA\2020_06_02_vinay\TPose1.trc																																																																
DataRate	CameraRate	NumFrames	NumMarkers	Units	OrigDataRate	OrigDataStartFrame	OrigNumFrames																																																												
1000	200	22	22	mm	200	1	822																																																												
Frame#	Time	RAsis			LAsis			RPsi			LPsi			RThigh1			RThigh2			RThigh3			RKneeOut			RKneeIn			LThigh1			LThigh2			LThigh3			LKneeOut			LKneeIn			MidAsis			MidPsi			MidPelvis			RHJC			LHJC			MidHJC			RKJC			LKJC		
		X1	Y1	Z1	X2	Y2	Z2	X3	Y3	Z3	X4	Y4	Z4	X5	Y5	Z5	X6	Y6	Z6	X7	Y7	Z7	X8	Y8	Z8	X9	Y9	Z9	X10	Y10	Z10	X11	Y11	Z11	X12	Y12	Z12	X13	Y13	Z13	X14	Y14	Z14	X15	Y15	Z15	X16	Y16	Z16	X17	Y17	Z17	X18	Y18	Z18	X19	Y19	Z19	X20	Y20	Z20	X21	Y21	Z21	X22	Y22	Z22
																																																																			
1	0	31.3851	973.146	227.995	36.2392	973.208	-14.9757	-164.073	1020.3	154.701	-164.052	1020.97	71.9528	-68.6734	742.3	299.815	-155.408	642.287	270.983	-40.6246	660.662	277.938	-114.945	507.562	278.618	-98.5407	493.083	163.29	-17.501	654.609	-60.4263	-58.751	747.927	-93.0579	-114.149	650.678	-81.0512	-92.5349	504.69	-70.0672	-91.8381	492.186	44.7718	33.81	973.18	106.51	-164.06	1020.63	113.33	-65.13	996.91	109.92	-49.39	904.31	209.46	-48.51	914.67	3.49	-48.95	909.49	106.48	-106.74	500.32	220.95	-92.19	498.44	-12.65
2	0.005	31.4136	973.142	227.988	36.2346	973.212	-14.9862	-164.06	1020.3	154.718	-164.045	1020.97	71.9719	-68.6418	742.292	299.81	-155.394	642.286	270.983	-40.603	660.655	277.928	-114.94	507.56	278.618	-98.5365	493.076	163.29	-17.5185	654.605	-60.408	-58.7641	747.93	-93.0604	-114.158	650.679	-81.0501	-92.5383	504.692	-70.069	-91.8381	492.184	44.7726	33.82	973.18	106.50	-164.05	1020.63	113.34	-65.11	996.91	109.92	-49.36	904.31	209.46	-48.51	914.67	3.49	-48.94	909.49	106.48	-106.74	500.32	220.95	-92.19	498.44	-12.65
3	0.01	31.4419	973.138	227.982	36.2302	973.215	-14.9965	-164.047	1020.29	154.735	-164.038	1020.97	71.9908	-68.6104	742.283	299.805	-155.38	642.285	270.983	-40.5815	660.649	277.917	-114.934	507.559	278.619	-98.532	493.07	163.289	-17.5355	654.602	-60.391	-58.7771	747.932	-93.063	-114.167	650.681	-81.0488	-92.5419	504.695	-70.0707	-91.838	492.182	44.7733	33.84	973.18	106.49	-164.04	1020.63	113.36	-65.10	996.90	109.93	-49.34	904.31	209.47	-48.51	914.67	3.49	-48.92	909.49	106.48	-106.73	500.31	220.95	-92.19	498.44	-12.65
4	0.015	31.47	973.134	227.975	36.2261	973.218	-15.0064	-164.034	1020.28	154.751	-164.03	1020.97	72.0093	-68.5796	742.274	299.8	-155.366	642.284	270.984	-40.5601	660.642	277.908	-114.928	507.557	278.619	-98.5273	493.064	163.289	-17.5516	654.599	-60.3761	-58.7899	747.934	-93.0656	-114.175	650.683	-81.0473	-92.5455	504.697	-70.0721	-91.8376	492.18	44.7738	33.85	973.18	106.48	-164.03	1020.63	113.38	-65.09	996.90	109.93	-49.31	904.30	209.47	-48.51	914.67	3.49	-48.91	909.48	106.48	-106.73	500.31	220.95	-92.19	498.44	-12.65
5	0.02	31.4977	973.131	227.968	36.2226	973.221	-15.0159	-164.02	1020.27	154.767	-164.022	1020.97	72.0274	-68.5496	742.266	299.796	-155.351	642.283	270.985	-40.5388	660.636	277.899	-114.922	507.555	278.619	-98.5222	493.059	163.288	-17.5665	654.597	-60.3639	-58.8026	747.936	-93.0682	-114.184	650.685	-81.0456	-92.5493	504.699	-70.0733	-91.8371	492.179	44.7742	33.86	973.18	106.48	-164.02	1020.62	113.40	-65.08	996.90	109.94	-49.29	904.30	209.47	-48.51	914.66	3.49	-48.90	909.48	106.48	-106.72	500.31	220.95	-92.19	498.44	-12.65
6	0.025	31.5249	973.128	227.962	36.2199	973.223	-15.0248	-164.005	1020.27	154.782	-164.014	1020.96	72.0447	-68.5206	742.258	299.793	-155.335	642.282	270.988	-40.5179	660.63	277.89	-114.915	507.554	278.619	-98.5167	493.056	163.287	-17.5802	654.595	-60.3548	-58.8148	747.937	-93.0708	-114.192	650.687	-81.0437	-92.5533	504.701	-70.0742	-91.8362	492.178	44.7743	33.87	973.18	106.47	-164.01	1020.62	113.41	-65.07	996.90	109.94	-49.26	904.29	209.47	-48.51	914.67	3.49	-48.88	909.48	106.48	-106.72	500.30	220.95	-92.19	498.44	-12.65
7	0.03	31.5516	973.125	227.957	36.218	973.225	-15.033	-163.989	1020.26	154.796	-164.005	1020.96	72.0612	-68.4928	742.251	299.79	-155.32	642.281	270.991	-40.4974	660.625	277.884	-114.906	507.552	278.62	-98.5109	493.053	163.286	-17.5924	654.593	-60.3486	-58.8265	747.939	-93.0734	-114.2	650.688	-81.0414	-92.5573	504.703	-70.0746	-91.835	492.177	44.7743	33.88	973.17	106.46	-164.00	1020.61	113.43	-65.06	996.89	109.95	-49.23	904.29	209.47	-48.50	914.66	3.49	-48.87	909.48	106.48	-106.71	500.30	220.95	-92.20	498.44	-12.65
8	0.035	31.5776	973.122	227.951	36.2171	973.226	-15.0404	-163.973	1020.26	154.809	-163.996	1020.96	72.0768	-68.4666	742.244	299.789	-155.304	642.28	270.995	-40.4773	660.62	277.878	-114.897	507.551	278.621	-98.505	493.051	163.284	-17.6032	654.592	-60.3454	-58.8376	747.941	-93.0759	-114.208	650.69	-81.039	-92.5613	504.705	-70.0747	-91.8333	492.176	44.7741	33.90	973.17	106.46	-163.98	1020.61	113.44	-65.04	996.89	109.95	-49.21	904.29	209.47	-48.50	914.67	3.49	-48.86	909.48	106.48	-106.70	500.30	220.95	-92.20	498.44	-12.65
9	0.04	31.6027	973.12	227.947	36.2174	973.227	-15.0471	-163.957	1020.25	154.821	-163.986	1020.96	72.0912	-68.4419	742.237	299.79	-155.288	642.278	271	-40.4577	660.615	277.874	-114.887	507.549	278.622	-98.499	493.05	163.283	-17.6125	654.591	-60.3447	-58.8477	747.943	-93.0783	-114.215	650.692	-81.0363	-92.5653	504.706	-70.0744	-91.8314	492.176	44.7738	33.91	973.17	106.45	-163.97	1020.61	113.46	-65.03	996.89	109.95	-49.19	904.29	209.47	-48.50	914.66	3.49	-48.84	909.47	106.48	-106.69	500.30	220.95	-92.20	498.44	-12.65
10	0.045	31.627	973.118	227.942	36.2189	973.227	-15.0528	-163.939	1020.25	154.832	-163.976	1020.96	72.1045	-68.4189	742.231	299.792	-155.273	642.277	271.006	-40.4387	660.611	277.872	-114.876	507.548	278.623	-98.493	493.049	163.282	-17.6202	654.59	-60.3462	-58.8568	747.944	-93.0806	-114.222	650.694	-81.0335	-92.5691	504.707	-70.0738	-91.829	492.175	44.7735	33.92	973.17	106.44	-163.96	1020.61	113.47	-65.02	996.89	109.96	-49.16	904.28	209.47	-48.49	914.66	3.49	-48.83	909.47	106.48	-106.68	500.30	220.95	-92.20	498.44	-12.65
11	0.05	31.65	973.116	227.939	36.2216	973.227	-15.0576	-163.922	1020.25	154.842	-163.965	1020.96	72.1165	-68.3976	742.226	299.795	-155.257	642.275	271.013	-40.4204	660.607	277.871	-114.865	507.547	278.624	-98.4871	493.049	163.281	-17.6262	654.589	-60.3496	-58.8647	747.946	-93.0826	-114.227	650.695	-81.0305	-92.5725	504.708	-70.0728	-91.8262	492.175	44.7733	33.94	973.17	106.44	-163.94	1020.61	113.48	-65.00	996.89	109.96	-49.14	904.28	209.48	-48.49	914.66	3.49	-48.82	909.47	106.48	-106.68	500.30	220.95	-92.20	498.44	-12.65
12	0.055	31.6717	973.114	227.935	36.2254	973.226	-15.0615	-163.904	1020.24	154.851	-163.954	1020.96	72.1273	-68.3781	742.221	299.799	-155.242	642.274	271.02	-40.4029	660.604	277.872	-114.853	507.546	278.626	-98.4814	493.049	163.281	-17.6305	654.589	-60.3544	-58.8712	747.947	-93.0844	-114.231	650.696	-81.0274	-92.5755	504.708	-70.0715	-91.8232	492.174	44.7733	33.95	973.17	106.44	-163.93	1020.60	113.49	-64.99	996.88	109.96	-49.12	904.28	209.48	-48.48	914.66	3.49	-48.80	909.47	106.49	-106.67	500.30	220.95	-92.20	498.44	-12.65
13	0.06	31.6919	973.112	227.933	36.2304	973.225	-15.0644	-163.887	1020.24	154.859	-163.942	1020.96	72.1367	-68.3604	742.217	299.804	-155.228	642.272	271.028	-40.3863	660.601	277.875	-114.84	507.544	278.628	-98.4759	493.05	163.28	-17.6329	654.588	-60.3601	-58.876	747.948	-93.0858	-114.234	650.697	-81.0241	-92.5777	504.708	-70.07	-91.8199	492.174	44.7734	33.96	973.17	106.43	-163.91	1020.60	113.50	-64.98	996.88	109.97	-49.11	904.28	209.48	-48.47	914.66	3.49	-48.79	909.47	106.49	-106.66	500.30	220.95	-92.20	498.44	-12.65
14	0.065	31.7103	973.109	227.931	36.2365	973.223	-15.0665	-163.869	1020.24	154.866	-163.93	1020.96	72.1448	-68.3445	742.214	299.81	-155.215	642.27	271.036	-40.3707	660.599	277.88	-114.828	507.543	278.63	-98.4706	493.05	163.28	-17.6334	654.588	-60.3663	-58.8789	747.948	-93.0868	-114.236	650.698	-81.0207	-92.5792	504.708	-70.0684	-91.8165	492.173	44.7739	33.97	973.17	106.43	-163.90	1020.60	113.51	-64.96	996.88	109.97	-49.09	904.28	209.48	-48.47	914.66	3.50	-48.78	909.47	106.49	-106.65	500.30	220.95	-92.20	498.44	-12.65
15	0.07	31.7269	973.106	227.93	36.2437	973.22	-15.0677	-163.852	1020.24	154.871	-163.917	1020.96	72.1516	-68.3303	742.211	299.816	-155.203	642.269	271.045	-40.3561	660.598	277.887	-114.815	507.542	278.632	-98.4656	493.05	163.28	-17.6319	654.588	-60.3726	-58.8798	747.949	-93.0873	-114.236	650.698	-81.0172	-92.5797	504.707	-70.0666	-91.813	492.172	44.7746	33.99	973.16	106.43	-163.88	1020.60	113.51	-64.95	996.88	109.97	-49.07	904.28	209.48	-48.46	914.66	3.50	-48.77	909.47	106.49	-106.64	500.30	220.96	-92.20	498.44	-12.65
16	0.075	31.7416	973.103	227.929	36.2519	973.217	-15.068	-163.835	1020.24	154.876	-163.904	1020.96	72.1571	-68.3179	742.208	299.822	-155.192	642.268	271.053	-40.3424	660.597	277.895	-114.803	507.541	278.634	-98.4607	493.051	163.28	-17.6285	654.587	-60.3787	-58.8784	747.949	-93.0873	-114.234	650.698	-81.0136	-92.5793	504.706	-70.0647	-91.8094	492.171	44.7757	34.00	973.16	106.43	-163.87	1020.60	113.52	-64.94	996.88	109.97	-49.06	904.28	209.49	-48.45	914.65	3.50	-48.76	909.46	106.49	-106.63	500.30	220.96	-92.19	498.44	-12.64
17	0.08	31.7543	973.099	227.929	36.2612	973.214	-15.0676	-163.819	1020.24	154.879	-163.891	1020.96	72.1614	-68.3071	742.207	299.829	-155.182	642.267	271.061	-40.3296	660.596	277.905	-114.792	507.54	278.635	-98.4561	493.051	163.281	-17.6231	654.587	-60.3841	-58.8748	747.948	-93.0866	-114.23	650.698	-81.01	-92.578	504.705	-70.0626	-91.8057	492.17	44.7771	34.01	973.16	106.43	-163.85	1020.60	113.52	-64.92	996.88	109.98	-49.05	904.27	209.49	-48.44	914.65	3.50	-48.74	909.46	106.49	-106.62	500.30	220.96	-92.19	498.44	-12.64
18	0.085	31.7651	973.095	227.93	36.2714	973.21	-15.0664	-163.804	1020.24	154.882	-163.877	1020.97	72.1645	-68.2978	742.206	299.835	-155.173	642.267	271.068	-40.3177	660.596	277.918	-114.781	507.539	278.637	-98.4522	493.052	163.281	-17.6159	654.586	-60.3884	-58.8689	747.948	-93.0855	-114.225	650.698	-81.0066	-92.5757	504.704	-70.0605	-91.802	492.17	44.7789	34.02	973.15	106.43	-163.84	1020.61	113.52	-64.91	996.88	109.98	-49.04	904.27	209.49	-48.43	914.65	3.50	-48.74	909.46	106.50	-106.62	500.30	220.96	-92.19	498.44	-12.64
19	0.09	31.7742	973.091	227.932	36.2826	973.206	-15.0644	-163.789	1020.24	154.884	-163.863	1020.97	72.1666	-68.2899	742.206	299.841	-155.166	642.267	271.075	-40.3066	660.597	277.932	-114.771	507.539	278.639	-98.449	493.052	163.281	-17.6069	654.586	-60.3915	-58.8606	747.947	-93.0837	-114.217	650.697	-81.0033	-92.5726	504.703	-70.0582	-91.7984	492.169	44.7809	34.03	973.15	106.43	-163.83	1020.61	113.53	-64.90	996.88	109.98	-49.03	904.27	209.49	-48.42	914.65	3.50	-48.73	909.46	106.50	-106.61	500.30	220.96	-92.19	498.44	-12.64
20	0.095	31.7817	973.086	227.934	36.2948	973.202	-15.0617	-163.775	1020.24	154.885	-163.849	1020.97	72.1677	-68.2834	742.206	299.846	-155.159	642.268	271.082	-40.2962	660.598	277.948	-114.762	507.539	278.641	-98.4468	493.052	163.281	-17.5963	654.585	-60.3929	-58.8501	747.946	-93.0813	-114.208	650.697	-81.0004	-92.5687	504.702	-70.0558	-91.7949	492.168	44.7832	34.04	973.14	106.44	-163.81	1020.61	113.53	-64.89	996.87	109.98	-49.02	904.27	209.49	-48.41	914.65	3.51	-48.72	909.46	106.50	-106.60	500.30	220.96	-92.18	498.44	-12.64
21	0.1	31.7879	973.082	227.938	36.3078	973.198	-15.0581	-163.763	1020.24	154.885	-163.834	1020.97	72.1679	-68.278	742.208	299.85	-155.153	642.269	271.088	-40.2864	660.6	277.966	-114.754	507.539	278.643	-98.4456	493.052	163.282	-17.5841	654.585	-60.3927	-58.8375	747.944	-93.0783	-114.197	650.696	-80.9977	-92.5641	504.701	-70.0533	-91.7915	492.167	44.7858	34.05	973.14	106.44	-163.80	1020.61	113.53	-64.88	996.87	109.98	-49.02	904.27	209.49	-48.40	914.64	3.51	-48.71	909.46	106.50	-106.60	500.30	220.96	-92.18	498.43	-12.63
22	0.105	31.793	973.078	227.942	36.3217	973.195	-15.0536	-163.751	1020.24	154.885	-163.819	1020.97	72.1674	-68.2738	742.21	299.854	-155.148	642.272	271.093	-40.2772	660.602	277.986	-114.747	507.539	278.645	-98.4455	493.053	163.283	-17.5707	654.584	-60.3908	-58.8229	747.943	-93.0747	-114.185	650.696	-80.9954	-92.5589	504.699	-70.0508	-91.7883	492.167	44.7886	34.06	973.14	106.44	-163.78	1020.61	113.53	-64.86	996.87	109.99	-49.01	904.26	209.50	-48.39	914.64	3.51	-48.70	909.45	106.50	-106.60	500.30	220.96	-92.17	498.43	-12.63
